<svg viewBox="0 0 1000 1000" xmlns="http://www.w3.org/2000/svg"><defs><clipPath id="b"><path fill="currentColor" d="M897.5 631.5Q862 763 757 864.5T518 911q-134-55-260.5-99t-188-178Q8 500 77.5 371.5t177.5-211q108-82.5 234-49T725 201q110 56 159 177.5t13.5 253Z"/></clipPath><filter id="a" x="-50vw" y="-50vh" width="100vw" height="100vh"><feFlood flood-color="#fff" result="neutral-gray"/><feTurbulence type="fractalNoise" baseFrequency="2.5" numOctaves="100" stitchTiles="stitch" result="noise"/><feColorMatrix in="noise" type="saturate" values="0" result="destaturatedNoise"/><feComponentTransfer in="desaturatedNoise" result="theNoise"><feFuncA type="table" tableValues="0 0 0.3 0"/></feComponentTransfer><feBlend in="SourceGraphic" in2="theNoise" mode="soft-light" result="noisy-image"/></filter></defs><g filter="url(#a)" clip-path="url(#b)"><path fill="#C4AF9A" d="M897.5 631.5Q862 763 757 864.5T518 911q-134-55-260.5-99t-188-178Q8 500 77.5 371.5t177.5-211q108-82.5 234-49T725 201q110 56 159 177.5t13.5 253Z"/></g></svg>