<svg viewBox="0 0 1000 1000" xmlns="http://www.w3.org/2000/svg"><defs><clipPath id="b"><path fill="currentColor" d="M851 614q-37 114-136.5 176T484 902q-131 50-213.5-62.5t-113-226Q127 500 119 358.5t116-217Q359 66 489 99t247 89q117 56 134.5 184T851 614Z"/></clipPath><filter id="a" x="-50vw" y="-50vh" width="100vw" height="100vh"><feFlood flood-color="#fff" result="neutral-gray"/><feTurbulence type="fractalNoise" baseFrequency="2.5" numOctaves="100" stitchTiles="stitch" result="noise"/><feColorMatrix in="noise" type="saturate" values="0" result="destaturatedNoise"/><feComponentTransfer in="desaturatedNoise" result="theNoise"><feFuncA type="table" tableValues="0 0 0.5 0"/></feComponentTransfer><feBlend in="SourceGraphic" in2="theNoise" mode="soft-light" result="noisy-image"/></filter></defs><g filter="url(#a)" clip-path="url(#b)"><path fill="#C4AF9A" d="M851 614q-37 114-136.5 176T484 902q-131 50-213.5-62.5t-113-226Q127 500 119 358.5t116-217Q359 66 489 99t247 89q117 56 134.5 184T851 614Z"/></g></svg>