<svg viewBox="0 0 1000 1000" xmlns="http://www.w3.org/2000/svg"><defs><clipPath id="b"><path fill="currentColor" d="M874 619.5Q784 739 685 863t-255.5 77Q273 893 167 776.5T77 506q16-154 98.5-289.5T417 76q159-5 311 50t194 214.5q42 159.5-48 279Z"/></clipPath><filter id="a" x="-50vw" y="-50vh" width="100vw" height="100vh"><feFlood flood-color="#fff" result="neutral-gray"/><feTurbulence type="fractalNoise" baseFrequency="2.5" numOctaves="100" stitchTiles="stitch" result="noise"/><feColorMatrix in="noise" type="saturate" values="0" result="destaturatedNoise"/><feComponentTransfer in="desaturatedNoise" result="theNoise"><feFuncA type="table" tableValues="0 0 0.5 0"/></feComponentTransfer><feBlend in="SourceGraphic" in2="theNoise" mode="soft-light" result="noisy-image"/></filter></defs><g filter="url(#a)" clip-path="url(#b)"><path fill="#C4AF9A" d="M874 619.5Q784 739 685 863t-255.5 77Q273 893 167 776.5T77 506q16-154 98.5-289.5T417 76q159-5 311 50t194 214.5q42 159.5-48 279Z"/></g></svg>